# xmcd CD database file
#
# Track frame offsets:
#	150
#	19847
#	37732
#	50497
#	75710
#	91062
#	117562
#	137902
#	170135
#	186475
#	206527
#	214177
#	229255
#
# Disc length: 3280 seconds
#
# Revision: 0
# Processed by: cddbd v1.5.1PL0 Copyright (c) Steve Scherf et al.
# Submitted via: CDex 1.60beta1
#
DISCID=b80cce0d
DTITLE=Ellis Marsalis - Solo Piano Reflections
DYEAR=0
DGENRE=Jazz
TTITLE0=Oneness
TTITLE1=Syndrome
TTITLE2=Blue For Art "T"
TTITLE3=Jitterbug Waltz
TTITLE4=Sweet Georgia Brown
TTITLE5=DJango
TTITLE6=Willow Weep For Me
TTITLE7=Gershwin Medley
TTITLE8=Spain
TTITLE9=My Funny Valentine
TTITLE10=Nem Um Talvez
TTITLE11=Bess You Is My Woman
TTITLE12=Fool On A Hill
EXTD=YEAR: 0
EXTT0=
EXTT1=
EXTT2=
EXTT3=
EXTT4=
EXTT5=
EXTT6=
EXTT7=
EXTT8=
EXTT9=
EXTT10=
EXTT11=
EXTT12=
PLAYORDER=
